# xmcd
#
# Track frame offsets:
#	150
#	16356
#	43593
#	64525
#	82336
#	101020
#	117681
#	146796
#	167363
#	183257
#
# Disc length: 2668 seconds
#
# Revision: 2
# Processed by: cddbd v1.5.2PL0 Copyright (c) Steve Scherf et al.
# Submitted via: audiograbber 1.83.01
#
DISCID=880a6a0a
DTITLE=Bernd Haake Band - Leben pur und direkt
DYEAR=1986
DGENRE=Blues
TTITLE0=Hey Mädchen
TTITLE1=Houston Texas
TTITLE2=Mama's Blues
TTITLE3=Blaues Blut
TTITLE4=Rote Ratte
TTITLE5=Leben - pur und direkt
TTITLE6=Blues vom Blues (Teil 2)
TTITLE7=Guten Morgen, Alkohol
TTITLE8=Das elfte Bier
TTITLE9=Was lacostet die Welt
EXTD=
EXTT0=
EXTT1=
EXTT2=
EXTT3=
EXTT4=
EXTT5=
EXTT6=
EXTT7=
EXTT8=
EXTT9=
PLAYORDER=
